<?xml version="1.0" encoding="utf-8"?>
<!-- Generator: Adobe Illustrator 24.0.1, SVG Export Plug-In . SVG Version: 6.00 Build 0)  -->
<svg version="1.1" id="Capa_1" xmlns="http://www.w3.org/2000/svg" xmlns:xlink="http://www.w3.org/1999/xlink" x="0px" y="0px"
	 viewBox="0 0 162.4 175.7" style="enable-background:new 0 0 162.4 175.7;" xml:space="preserve">
<title>ocean</title>
<g>
	<path d="M148.6,147.3L148.6,147.3c-4.6,0.1-9.1-1-13.1-3.1c-1.4-0.8-2.6-1.7-3.7-2.9c-1.1,1.1-2.3,2.1-3.7,2.9
		c-4,2.1-8.6,3.2-13.1,3.1l0,0c-4.6,0.1-9.1-1-13.1-3.1c-1.4-0.8-2.7-1.7-3.8-2.9c-3.3,3.6-9.5,6-16.8,6l0,0c-7.3,0-13.5-2.4-16.8-6
		c-3.3,3.6-9.5,6-16.8,6l0,0c-7.3,0-13.5-2.4-16.8-6c-3.3,3.6-9.5,6-16.8,6l0,0c-1.4,0-2.5-1.1-2.5-2.5s1.1-2.5,2.5-2.5l0,0
		c8.4,0,14.3-3.7,14.3-7c0-1.4,1.1-2.5,2.5-2.5l0,0c1.4,0,2.5,1.1,2.5,2.5l0,0c0,3.3,5.9,7,14.3,7l0,0c8.5,0,14.3-3.7,14.3-7
		c0-1.4,1.1-2.5,2.5-2.5l0,0c1.4,0,2.5,1.1,2.5,2.5c0,3.3,5.9,7,14.3,7l0,0c8.4,0,14.3-3.7,14.3-7c0-1.4,1.1-2.5,2.5-2.5l0,0
		c1.4,0,2.5,1.1,2.5,2.5c0,1.6,1.3,3.2,3.7,4.5c3.3,1.7,7,2.5,10.7,2.5l0,0c3.7,0.1,7.4-0.8,10.7-2.4c2.3-1.3,3.7-3,3.7-4.5
		c0-1.4,1.1-2.5,2.5-2.5l0,0c1.4,0,2.5,1.1,2.5,2.5c0,1.6,1.3,3.2,3.6,4.5c3.3,1.7,7,2.5,10.7,2.4c1.4,0,2.5,1.1,2.5,2.5
		S149.9,147.3,148.6,147.3L148.6,147.3z"/>
	<path d="M148.6,118.4c-7.3,0-13.5-2.4-16.8-6c-3.3,3.6-9.5,6-16.8,6s-13.5-2.4-16.9-6c-3.3,3.6-9.5,6-16.8,6s-13.5-2.4-16.8-6
		c-3.3,3.6-9.5,6-16.8,6s-13.5-2.4-16.8-6c-3.3,3.6-9.5,6-16.8,6c-1.4,0-2.5-1.1-2.5-2.5s1.1-2.5,2.5-2.5c8.4,0,14.3-3.7,14.3-7
		c0-1.4,1.1-2.5,2.5-2.5c1.4,0,2.5,1.1,2.5,2.5l0,0c0,3.3,5.9,7,14.3,7s14.3-3.7,14.3-7c0-1.4,1.1-2.5,2.5-2.5
		c1.4,0,2.5,1.1,2.5,2.5c0,3.3,5.9,7,14.3,7s14.3-3.7,14.3-7c0-1.4,1.1-2.5,2.5-2.5s2.5,1.1,2.5,2.5c0,3.3,5.9,7,14.3,7
		s14.3-3.7,14.3-7c0-1.4,1.1-2.5,2.5-2.5s2.5,1.1,2.5,2.5c0,3.3,5.9,7,14.3,7c1.4,0,2.5,1.1,2.5,2.5S149.9,118.4,148.6,118.4z"/>
	<path d="M148.6,89.6c-7.3,0-13.5-2.4-16.8-6c-3.3,3.6-9.5,6-16.8,6s-13.5-2.4-16.8-6c-3.3,3.6-9.5,6-16.8,6s-13.5-2.4-16.8-6
		c-3.3,3.6-9.5,6-16.8,6s-13.5-2.4-16.8-6c-3.3,3.6-9.5,6-16.8,6c-1.4,0-2.5-1.1-2.5-2.5s1.1-2.5,2.5-2.5c8.5,0,14.3-3.7,14.3-7
		c0-1.4,1.1-2.5,2.5-2.5c1.4,0,2.5,1.1,2.5,2.5c0,3.3,5.9,7,14.3,7s14.3-3.7,14.3-7c0-1.4,1.1-2.5,2.5-2.5c1.4,0,2.5,1.1,2.5,2.5
		c0,3.3,5.9,7,14.3,7s14.3-3.7,14.3-7c0-1.4,1.1-2.5,2.5-2.5s2.5,1.1,2.5,2.5c0,3.3,5.9,7,14.3,7s14.3-3.7,14.3-7
		c0-1.4,1.1-2.5,2.5-2.5s2.5,1.1,2.5,2.5c0,3.3,5.9,7,14.3,7c1.4,0,2.5,1.1,2.5,2.5S149.9,89.6,148.6,89.6z"/>
	<path d="M148.6,60.7c-7.3,0-13.5-2.4-16.8-6c-3.3,3.6-9.5,6-16.8,6s-13.5-2.4-16.8-6c-3.3,3.6-9.5,6-16.8,6s-13.5-2.4-16.8-6
		c-3.3,3.6-9.5,6-16.8,6s-13.5-2.4-16.8-6c-3.3,3.6-9.5,6-16.8,6c-1.4,0-2.5-1.1-2.5-2.5s1.1-2.5,2.5-2.5c8.5,0,14.3-3.7,14.3-7
		c0-1.4,1.1-2.5,2.5-2.5c1.4,0,2.5,1.1,2.5,2.5c0,3.3,5.9,7,14.3,7s14.3-3.7,14.3-7c0-1.4,1.1-2.5,2.5-2.5c1.4,0,2.5,1.1,2.5,2.5
		c0,3.3,5.9,7,14.3,7s14.3-3.7,14.3-7c0-1.4,1.1-2.5,2.5-2.5s2.5,1.1,2.5,2.5c0,3.3,5.9,7,14.3,7s14.3-3.7,14.3-7
		c0-1.4,1.1-2.5,2.5-2.5s2.5,1.1,2.5,2.5c0,3.3,5.9,7,14.3,7c1.4,0,2.5,1.1,2.5,2.5S149.9,60.7,148.6,60.7z"/>
</g>
</svg>
